<svg width="93" height="291" viewBox="0 0 93 291" fill="none" xmlns="http://www.w3.org/2000/svg">
<path d="M66.1128 275.424C57.7828 273.777 49.6796 272.361 40.494 270.526C41.571 276.892 45.1833 280.355 49.0598 281.57C60.6891 285.216 72.5108 288.601 84.4559 290.738C91.2841 291.995 94.451 286.076 91.8205 278.58C87.5704 265.996 82.7086 253.702 78.0392 241.147C77.7779 240.422 77.4993 239.45 77.0628 239.233C75.5093 238.103 73.7808 237.481 72.0349 236.612C71.5268 238.382 70.1801 240.21 70.4932 241.674C71.484 246.807 72.8768 251.664 74.06 256.536C74.6689 259.219 75.4701 261.64 74.6978 265.657C71.9929 263.122 69.0783 260.6 66.3734 258.065C12.3831 202.882 -4.25148 115.607 24.3934 40.2779C28.1402 30.6024 32.7771 21.6078 36.9604 12.1495C38.4132 8.82749 39.6564 5.52015 41.1092 2.19814C40.6382 1.4879 39.9749 1.03884 39.504 0.328595C37.6692 1.20007 35.1711 1.62248 34.0341 3.43605C30.0115 9.16727 25.9889 14.8985 22.6469 21.3253C-10.8081 85.1003 -6.32818 170.252 34.3276 233.551C42.1239 245.64 51.7033 256.118 60.4788 267.147C62.328 269.495 64.3524 271.335 66.3941 273.422C66.6382 273.9 66.4803 274.655 66.1128 275.424Z" fill="#E0E0E0"/>
</svg>
