<svg width="72" height="295" viewBox="0 0 72 295" fill="none" xmlns="http://www.w3.org/2000/svg">
<path d="M26.2349 276.446C34.2546 273.656 42.0819 271.127 50.9228 268.031C50.7422 274.485 47.647 278.417 43.9774 280.16C32.9687 285.389 21.7331 290.386 10.2017 294.165C3.61484 296.36 -0.345056 290.939 1.21667 283.15C3.67405 270.096 6.77751 257.245 9.65412 244.162C9.81202 243.408 9.95269 242.407 10.3547 242.131C11.7358 240.796 13.3609 239.939 14.9689 238.836C15.7184 240.518 17.3063 242.141 17.2001 243.635C16.9333 248.856 16.23 253.859 15.7364 258.848C15.5068 261.589 15.0503 264.099 16.3742 267.97C18.6999 265.082 21.2352 262.18 23.5609 259.292C69.3457 197.131 73.6721 108.39 34.8221 37.7799C29.7652 28.7198 23.9216 20.458 18.4627 11.6739C16.5617 8.58633 14.8703 5.48415 12.9693 2.39663C13.3368 1.62775 13.9312 1.09074 14.2987 0.321859C16.2369 0.929507 18.7695 1.00014 20.1478 2.63785C24.9289 7.75352 29.71 12.8692 33.914 18.7684C75.9192 77.2674 83.3337 162.215 51.8832 230.557C45.8452 243.613 37.8172 255.322 30.6622 267.466C29.1577 270.048 27.4091 272.153 25.6778 274.503C25.5026 275.011 25.764 275.736 26.2349 276.446Z" fill="#E0E0E0"/>
</svg>
