<svg width="242" height="24" viewBox="0 0 242 24" fill="none" xmlns="http://www.w3.org/2000/svg">
<path d="M2 22.5C3.66311 22.2006 5.33452 18.9273 7.00003 18.9273C7.79856 18.9273 11.8808 14.4817 12.5001 14C14.8907 12.1406 20.7622 11.3862 23.5001 9.94123C27.0047 8.09157 30.4712 10.694 34.6112 9.94123C35.6548 9.75148 36.9716 9.42734 38.014 9.42734C40.322 9.42734 42.4046 7.92734 44.6945 7.92734C45.7453 7.92734 46.7219 7.62189 47.7501 7.37178C49.6489 6.90991 51.5725 6.81008 53.4862 6.42734C55.1048 6.10362 56.7423 5.98556 58.3612 5.69123C60.1769 5.36109 62.1305 4.71261 64.0001 4.67734C70.2371 4.55966 76.6893 4.11168 82.8334 3.05234C84.4363 2.77598 86.1384 2.8703 87.7501 2.69123C89.265 2.5229 90.6948 2.42734 92.2501 2.42734C101.992 2.42734 111.754 1.6644 121.5 2.17734C123.848 2.30092 126.126 3.34147 128.445 3.42734C130.867 3.51705 133.228 4.16122 135.695 4.17734C138.589 4.19626 141.474 4.42734 144.361 4.42734C146.457 4.42734 148.532 4.81054 150.611 5.05234C152.402 5.26058 154.241 4.98966 156.014 5.31623C157.501 5.59022 159.044 6.30647 160.542 6.41345C163.772 6.64416 166.983 6.19235 170.195 5.98289C172.798 5.81313 175.489 6.22267 178.056 5.67734C180.125 5.23752 181.3 4.95986 183.5 5.17734C189.24 5.74461 195.2 5.52239 200.75 7.28845C203.045 8.01871 205.497 8.28406 207.875 8.56623C209.922 8.80912 211.941 9.49299 213.986 9.66345C216.901 9.90634 220.24 10.8302 222.945 11.9829C225.079 12.8926 227.408 14.2402 229.25 15.6218C230.378 16.468 231.745 17.3568 233.125 17.6634C234.406 17.9481 235.692 18.1773 237.014 18.1773C237.933 18.1773 239.639 17.8436 240 18.9273" stroke="#7FC0FB" stroke-width="3" stroke-linecap="round"/>
</svg>
