<svg width="184" height="184" viewBox="0 0 184 184" fill="none" xmlns="http://www.w3.org/2000/svg">
<rect x="0.380569" y="-3.05176e-05" width="183.569" height="183.569" rx="47.4086" transform="rotate(0.118781 0.380569 -3.05176e-05)" fill="white"/>
<path d="M49.9196 89.9527C50.9159 84.8286 51.4141 82.2665 52.603 80.2684C54.1882 77.6042 56.6507 75.5744 59.5685 74.5269C61.7568 73.7412 64.3668 73.7412 69.5869 73.7412L114.473 73.7412C119.693 73.7412 122.303 73.7412 124.492 74.5269C127.409 75.5744 129.872 77.6042 131.457 80.2684C132.646 82.2665 133.144 84.8286 134.14 89.9527C135.552 97.2128 136.258 100.843 135.522 103.743C134.54 107.609 131.881 110.835 128.273 112.536C125.567 113.813 121.869 113.813 114.473 113.813H69.5868C62.1908 113.813 58.4927 113.813 55.7867 112.536C52.1787 110.835 49.5201 107.609 48.5384 103.743C47.802 100.843 48.5079 97.2128 49.9196 89.9527Z" fill="url(#paint0_linear_280_151)"/>
<g filter="url(#filter0_b_280_151)">
<circle cx="92.6053" cy="65.682" r="25.2969" fill="#BFB5FF" fill-opacity="0.6"/>
<circle cx="92.6053" cy="65.682" r="24.991" stroke="url(#paint1_linear_280_151)" stroke-width="0.611895"/>
</g>
<g filter="url(#filter1_b_280_151)">
<path d="M50.5252 123.622C50.5252 135.101 59.8309 144.407 71.3101 144.407L112.88 144.407C124.359 144.407 133.665 135.101 133.665 123.622C133.665 108.317 121.249 95.9089 105.944 95.9089C96.0673 95.9089 88.1229 95.9089 78.2466 95.9089C62.941 95.9089 50.5252 108.317 50.5252 123.622Z" fill="#BFB5FF" fill-opacity="0.6"/>
<path d="M50.8311 123.622C50.8311 134.932 59.9999 144.101 71.3101 144.101L112.88 144.101C124.19 144.101 133.359 134.932 133.359 123.622C133.359 108.486 121.08 96.2149 105.944 96.2149L105.886 96.2149L105.828 96.2149L105.77 96.2149L105.712 96.2149L105.655 96.2149L105.597 96.2149L105.54 96.2149L105.482 96.2149L105.425 96.2149L105.367 96.2149L105.31 96.2149L105.252 96.2149L105.195 96.2149L105.138 96.2149L105.08 96.2149L105.023 96.2149L104.966 96.2149L104.909 96.2149L104.852 96.2149L104.795 96.2149L104.738 96.2149L104.681 96.2149L104.624 96.2149L104.567 96.2149L104.51 96.2149L104.453 96.2149L104.397 96.2149L104.34 96.2149L104.283 96.2149L104.227 96.2149L104.17 96.2149L104.113 96.2149L104.057 96.2149L104 96.2149L103.944 96.2149L103.888 96.2149L103.831 96.2149L103.775 96.2149L103.719 96.2149L103.662 96.2149L103.606 96.2149L103.55 96.2149L103.494 96.2149L103.438 96.2149L103.382 96.2149L103.326 96.2149L103.27 96.2149L103.214 96.2149L103.158 96.2149L103.102 96.2149L103.046 96.2149L102.99 96.2149L102.934 96.2149L102.879 96.2149L102.823 96.2149L102.767 96.2149L102.712 96.2149L102.656 96.2149L102.6 96.2149L102.545 96.2149L102.489 96.2149L102.434 96.2149L102.378 96.2149L102.323 96.2149L102.268 96.2149L102.212 96.2149L102.157 96.2149L102.102 96.2149L102.046 96.2149L101.991 96.2149L101.936 96.2149L101.881 96.2149L101.826 96.2149L101.771 96.2149L101.716 96.2149L101.661 96.2149L101.606 96.2149L101.551 96.2149L101.496 96.2149L101.441 96.2149L101.386 96.2149L101.331 96.2149L101.276 96.2149L101.222 96.2149L101.167 96.2149L101.112 96.2149L101.057 96.2149L101.003 96.2149L100.948 96.2149L100.893 96.2149L100.839 96.2149L100.784 96.2149L100.73 96.2149L100.675 96.2149L100.621 96.2149L100.566 96.2149L100.512 96.2149L100.458 96.2149L100.403 96.2149L100.349 96.2149L100.295 96.2149L100.24 96.2149L100.186 96.2149L100.132 96.2149L100.078 96.2149L100.024 96.2149L99.9695 96.2149L99.9153 96.2149L99.8612 96.2149L99.8072 96.2149L99.7532 96.2149L99.6991 96.2149L99.6452 96.2149L99.5912 96.2149L99.5373 96.2149L99.4833 96.2149L99.4294 96.2149L99.3756 96.2149L99.3217 96.2149L99.2679 96.2149L99.2141 96.2149L99.1604 96.2149L99.1066 96.2149L99.0529 96.2149L98.9992 96.2149L98.9455 96.2149L98.8918 96.2149L98.8382 96.2149L98.7846 96.2149L98.731 96.2149L98.6774 96.2149L98.6239 96.2149L98.5704 96.2149L98.5169 96.2149L98.4634 96.2149L98.4099 96.2149L98.3565 96.2149L98.303 96.2149L98.2496 96.2149L98.1963 96.2149L98.1429 96.2149L98.0896 96.2149L98.0362 96.2149L97.9829 96.2149L97.9297 96.2149L97.8764 96.2149L97.8231 96.2149L97.7699 96.2149L97.7167 96.2149L97.6635 96.2149L97.6104 96.2149L97.5572 96.2149L97.5041 96.2149L97.451 96.2149L97.3979 96.2149L97.3448 96.2149L97.2917 96.2149L97.2387 96.2149L97.1856 96.2149L97.1326 96.2149L97.0796 96.2149L97.0266 96.2149L96.9737 96.2149L96.9207 96.2149L96.8678 96.2149L96.8149 96.2149L96.762 96.2149L96.7091 96.2149L96.6562 96.2149L96.6034 96.2149L96.5505 96.2149L96.4977 96.2149L96.4449 96.2149L96.3921 96.2149L96.3393 96.2149L96.2865 96.2149L96.2338 96.2149L96.181 96.2149L96.1283 96.2149L96.0756 96.2149L96.0229 96.2149L95.9702 96.2149L95.9175 96.2149L95.8649 96.2149L95.8122 96.2149L95.7596 96.2149L95.707 96.2149L95.6543 96.2149L95.6017 96.2149L95.5492 96.2149L95.4966 96.2149L95.444 96.2149L95.3914 96.2149L95.3389 96.2149L95.2864 96.2149L95.2338 96.2149L95.1813 96.2149L95.1288 96.2149L95.0763 96.2149L95.0238 96.2149L94.9714 96.2149L94.9189 96.2149L94.8664 96.2149L94.814 96.2149L94.7616 96.2149L94.7091 96.2149L94.6567 96.2149L94.6043 96.2149L94.5519 96.2149L94.4995 96.2149L94.4471 96.2149L94.3947 96.2149L94.3424 96.2149L94.29 96.2149L94.2376 96.2149L94.1853 96.2149L94.1329 96.2149L94.0806 96.2149L94.0283 96.2149L93.9759 96.2149L93.9236 96.2149L93.8713 96.2149L93.819 96.2149L93.7667 96.2149L93.7144 96.2149L93.6621 96.2149L93.6098 96.2149L93.5576 96.2149L93.5053 96.2149L93.453 96.2149L93.4008 96.2149L93.3485 96.2149L93.2962 96.2149L93.244 96.2149L93.1917 96.2149L93.1395 96.2149L93.0873 96.2149L93.035 96.2149L92.9828 96.2149L92.9305 96.2149L92.8783 96.2149L92.8261 96.2149L92.7739 96.2149L92.7216 96.2149L92.6694 96.2149L92.6172 96.2149L92.565 96.2149L92.5128 96.2149L92.4606 96.2149L92.4083 96.2149L92.3561 96.2149L92.3039 96.2149L92.2517 96.2149L92.1995 96.2149L92.1473 96.2149L92.0951 96.2149L92.0429 96.2149L91.9907 96.2149L91.9385 96.2149L91.8862 96.2149L91.834 96.2149L91.7818 96.2149L91.7296 96.2149L91.6774 96.2149L91.6252 96.2149L91.573 96.2149L91.5207 96.2149L91.4685 96.2149L91.4163 96.2149L91.3641 96.2149L91.3119 96.2149L91.2596 96.2149L91.2074 96.2149L91.1552 96.2149L91.1029 96.2149L91.0507 96.2149L90.9984 96.2149L90.9462 96.2149L90.8939 96.2149L90.8417 96.2149L90.7894 96.2149L90.7371 96.2149L90.6849 96.2149L90.6326 96.2149L90.5803 96.2149L90.528 96.2149L90.4757 96.2149L90.4235 96.2149L90.3712 96.2149L90.3188 96.2149L90.2665 96.2149L90.2142 96.2149L90.1619 96.2149L90.1096 96.2149L90.0572 96.2149L90.0049 96.2149L89.9525 96.2149L89.9002 96.2149L89.8478 96.2149L89.7954 96.2149L89.7431 96.2149L89.6907 96.2149L89.6383 96.2149L89.5859 96.2149L89.5335 96.2149L89.481 96.2149L89.4286 96.2149L89.3762 96.2149L89.3237 96.2149L89.2713 96.2149L89.2188 96.2149L89.1663 96.2149L89.1138 96.2149L89.0613 96.2149L89.0088 96.2149L88.9563 96.2149L88.9038 96.2149L88.8513 96.2149L88.7987 96.2149L88.7462 96.2149L88.6936 96.2149L88.641 96.2149L88.5884 96.2149L88.5358 96.2149L88.4832 96.2149L88.4306 96.2149L88.3779 96.2149L88.3253 96.2149L88.2726 96.2149L88.22 96.2149L88.1673 96.2149L88.1146 96.2149L88.0618 96.2149L88.0091 96.2149L87.9564 96.2149L87.9036 96.2149L87.8509 96.2149L87.7981 96.2149L87.7453 96.2149L87.6925 96.2149L87.6396 96.2149L87.5868 96.2149L87.5339 96.2149L87.4811 96.2149L87.4282 96.2149L87.3753 96.2149L87.3224 96.2149L87.2694 96.2149L87.2165 96.2149L87.1635 96.2149L87.1105 96.2149L87.0575 96.2149L87.0045 96.2149L86.9515 96.2149L86.8985 96.2149L86.8454 96.2149L86.7923 96.2149L86.7392 96.2149L86.6861 96.2149L86.633 96.2149L86.5798 96.2149L86.5266 96.2149L86.4735 96.2149L86.4202 96.2149L86.367 96.2149L86.3138 96.2149L86.2605 96.2149L86.2072 96.2149L86.1539 96.2149L86.1006 96.2149L86.0473 96.2149L85.9939 96.2149L85.9405 96.2149L85.8871 96.2149L85.8337 96.2149L85.7803 96.2149L85.7268 96.2149L85.6733 96.2149L85.6198 96.2149L85.5663 96.2149L85.5127 96.2149L85.4592 96.2149L85.4056 96.2149L85.352 96.2149L85.2983 96.2149L85.2447 96.2149L85.191 96.2149L85.1373 96.2149L85.0836 96.2149L85.0298 96.2149L84.976 96.2149L84.9222 96.2149L84.8684 96.2149L84.8146 96.2149L84.7607 96.2149L84.7068 96.2149L84.6529 96.2149L84.599 96.2149L84.545 96.2149L84.491 96.2149L84.437 96.2149L84.383 96.2149L84.3289 96.2149L84.2748 96.2149L84.2207 96.2149L84.1666 96.2149L84.1124 96.2149L84.0582 96.2149L84.004 96.2149L83.9498 96.2149L83.8955 96.2149L83.8412 96.2149L83.7869 96.2149L83.7325 96.2149L83.6781 96.2149L83.6237 96.2149L83.5693 96.2149L83.5148 96.2149L83.4603 96.2149L83.4058 96.2149L83.3513 96.2149L83.2967 96.2149L83.2421 96.2149L83.1875 96.2149L83.1328 96.2149L83.0781 96.2149L83.0234 96.2149L82.9687 96.2149L82.9139 96.2149L82.8591 96.2149L82.8042 96.2149L82.7494 96.2149L82.6945 96.2149L82.6395 96.2149L82.5846 96.2149L82.5296 96.2149L82.4746 96.2149L82.4195 96.2149L82.3644 96.2149L82.3093 96.2149L82.2541 96.2149L82.199 96.2149L82.1438 96.2149L82.0885 96.2149L82.0332 96.2149L81.9779 96.2149L81.9226 96.2149L81.8672 96.2149L81.8118 96.2149L81.7563 96.2149L81.7009 96.2149L81.6454 96.2149L81.5898 96.2149L81.5342 96.2149L81.4786 96.2149L81.423 96.2149L81.3673 96.2149L81.3116 96.2149L81.2558 96.2149L81.2 96.2149L81.1442 96.2149L81.0884 96.2149L81.0325 96.2149L80.9766 96.2149L80.9206 96.2149L80.8646 96.2149L80.8086 96.2149L80.7525 96.2149L80.6964 96.2149L80.6402 96.2149L80.584 96.2149L80.5278 96.2149L80.4716 96.2149L80.4153 96.2149L80.3589 96.2149L80.3026 96.2149L80.2462 96.2149L80.1897 96.2149L80.1332 96.2149L80.0767 96.2149L80.0201 96.2149L79.9635 96.2149L79.9069 96.2149L79.8502 96.2149L79.7935 96.2149L79.7368 96.2149L79.68 96.2149L79.6231 96.2149L79.5662 96.2149L79.5093 96.2149L79.4524 96.2149L79.3954 96.2149L79.3383 96.2149L79.2812 96.2149L79.2241 96.2149L79.167 96.2149L79.1098 96.2149L79.0525 96.2149L78.9952 96.2149L78.9379 96.2149L78.8805 96.2149L78.8231 96.2149L78.7657 96.2149L78.7082 96.2149L78.6506 96.2149L78.593 96.2149L78.5354 96.2149L78.4777 96.2149L78.42 96.2149L78.3623 96.2149L78.3044 96.2149L78.2466 96.2149C63.1099 96.2149 50.8311 108.486 50.8311 123.622Z" stroke="url(#paint2_linear_280_151)" stroke-width="0.611895"/>
</g>
<defs>
<filter id="filter0_b_280_151" x="54.6599" y="27.7366" width="75.8907" height="75.8907" filterUnits="userSpaceOnUse" color-interpolation-filters="sRGB">
<feFlood flood-opacity="0" result="BackgroundImageFix"/>
<feGaussianBlur in="BackgroundImage" stdDeviation="6.32423"/>
<feComposite in2="SourceAlpha" operator="in" result="effect1_backgroundBlur_280_151"/>
<feBlend mode="normal" in="SourceGraphic" in2="effect1_backgroundBlur_280_151" result="shape"/>
</filter>
<filter id="filter1_b_280_151" x="36.6686" y="82.0523" width="110.853" height="76.2115" filterUnits="userSpaceOnUse" color-interpolation-filters="sRGB">
<feFlood flood-opacity="0" result="BackgroundImageFix"/>
<feGaussianBlur in="BackgroundImage" stdDeviation="6.92831"/>
<feComposite in2="SourceAlpha" operator="in" result="effect1_backgroundBlur_280_151"/>
<feBlend mode="normal" in="SourceGraphic" in2="effect1_backgroundBlur_280_151" result="shape"/>
</filter>
<linearGradient id="paint0_linear_280_151" x1="72.2512" y1="82.5068" x2="121.054" y2="121.667" gradientUnits="userSpaceOnUse">
<stop stop-color="#917FFB"/>
<stop offset="1" stop-color="#3F2DAF"/>
</linearGradient>
<linearGradient id="paint1_linear_280_151" x1="67.3084" y1="49.8714" x2="91.6171" y2="89.7956" gradientUnits="userSpaceOnUse">
<stop stop-color="white"/>
<stop offset="0.99715" stop-color="white" stop-opacity="0"/>
</linearGradient>
<linearGradient id="paint2_linear_280_151" x1="54.423" y1="100.221" x2="136.403" y2="138.111" gradientUnits="userSpaceOnUse">
<stop stop-color="white"/>
<stop offset="1" stop-color="white" stop-opacity="0"/>
</linearGradient>
</defs>
</svg>
