<svg width="184" height="184" viewBox="0 0 184 184" fill="none" xmlns="http://www.w3.org/2000/svg">
<rect x="0.380554" width="183.569" height="183.569" rx="47.4086" transform="rotate(0.118781 0.380554 0)" fill="white"/>
<path d="M93.8005 116.275C100.729 113.659 127.883 100.624 129.085 56.6788C129.136 54.8066 128.159 53.0372 126.569 52.0477C105.528 38.956 78.8772 38.956 57.8368 52.0477C56.2466 53.0372 55.2698 54.8066 55.321 56.6788C56.5228 100.624 83.6764 113.659 90.605 116.275C91.6395 116.665 92.766 116.665 93.8005 116.275Z" fill="url(#paint0_linear_280_149)"/>
<g filter="url(#filter0_b_280_149)">
<path d="M55.565 67.4399L52.2267 69.3475C50.3093 70.4432 49.1119 72.5109 49.1848 74.7181C50.7567 122.357 83.4004 135.915 90.7444 138.367C91.7103 138.69 92.6952 138.69 93.6611 138.367C101.005 135.915 133.649 122.357 135.221 74.7181C135.294 72.5109 134.096 70.4432 132.179 69.3475L128.841 67.4399C106.138 54.467 78.2676 54.467 55.565 67.4399Z" fill="#6AE092" fill-opacity="0.6"/>
<path d="M52.3785 69.6132L55.7168 67.7056C78.3253 54.7864 106.08 54.7864 128.689 67.7056L132.027 69.6132C133.85 70.6546 134.984 72.6183 134.915 74.708C134.131 98.451 125.608 113.679 116.385 123.276C107.155 132.879 97.208 136.86 93.5642 138.077C92.6612 138.379 91.7443 138.379 90.8413 138.077C87.1975 136.86 77.2503 132.879 68.0207 123.276C58.7971 113.679 50.274 98.451 49.4906 74.708C49.4216 72.6183 50.5559 70.6546 52.3785 69.6132Z" stroke="url(#paint1_linear_280_149)" stroke-width="0.611895"/>
</g>
<path d="M88.9526 101.688C88.9985 101.734 89.0608 101.76 89.1257 101.76C89.1906 101.76 89.2528 101.734 89.2987 101.688L107.574 83.4134C109.28 81.7066 112.048 81.7066 113.755 83.4134C115.461 85.1202 115.461 87.8875 113.755 89.5944L92.2162 111.133C91.3965 111.952 90.2848 112.413 89.1257 112.413C87.9665 112.413 86.8548 111.952 86.0352 111.133L73.7275 98.8251C72.0207 97.1183 72.0207 94.351 73.7275 92.6441C75.4344 90.9373 78.2017 90.9373 79.9085 92.6441L88.9526 101.688Z" fill="url(#paint2_linear_280_149)" fill-opacity="0.9" stroke="url(#paint3_linear_280_149)" stroke-width="0.489516" stroke-linecap="round" stroke-linejoin="round"/>
<defs>
<filter id="filter0_b_280_149" x="36.874" y="45.4026" width="110.658" height="105.514" filterUnits="userSpaceOnUse" color-interpolation-filters="sRGB">
<feFlood flood-opacity="0" result="BackgroundImageFix"/>
<feGaussianBlur in="BackgroundImage" stdDeviation="6.15382"/>
<feComposite in2="SourceAlpha" operator="in" result="effect1_backgroundBlur_280_149"/>
<feBlend mode="normal" in="SourceGraphic" in2="effect1_backgroundBlur_280_149" result="shape"/>
</filter>
<linearGradient id="paint0_linear_280_149" x1="71.7034" y1="61.2782" x2="151.947" y2="121.67" gradientUnits="userSpaceOnUse">
<stop stop-color="#75EDA1"/>
<stop offset="1" stop-color="#349256"/>
</linearGradient>
<linearGradient id="paint1_linear_280_149" x1="50.7874" y1="66.0847" x2="157.593" y2="144.848" gradientUnits="userSpaceOnUse">
<stop stop-color="white"/>
<stop offset="0.734375" stop-color="white" stop-opacity="0"/>
</linearGradient>
<linearGradient id="paint2_linear_280_149" x1="78.9344" y1="93.62" x2="146.243" y2="101.575" gradientUnits="userSpaceOnUse">
<stop stop-color="white"/>
<stop offset="1" stop-color="white" stop-opacity="0"/>
</linearGradient>
<linearGradient id="paint3_linear_280_149" x1="73.4274" y1="86.2773" x2="100.963" y2="95.4557" gradientUnits="userSpaceOnUse">
<stop stop-color="white"/>
<stop offset="1" stop-color="white" stop-opacity="0"/>
</linearGradient>
</defs>
</svg>
